<?xml version="1.0" encoding="iso-8859-1"?>
<!-- Generator: Adobe Illustrator 19.0.0, SVG Export Plug-In . SVG Version: 6.00 Build 0)  -->
<svg version="1.1" id="Layer_1" xmlns="http://www.w3.org/2000/svg" xmlns:xlink="http://www.w3.org/1999/xlink" x="0px" y="0px"
	 viewBox="0 0 512.001 512.001" style="enable-background:new 0 0 512.001 512.001;" xml:space="preserve">
<g>
	<path style="fill:#FBB03B;" d="M428.072,363.46c0-40.72,33.01-73.953,73.73-73.953l-18.745,73.953H428.072z"/>
	<path style="fill:#FBB03B;" d="M159.767,363.46c0-82.603-66.964-150.005-149.567-150.005L48.226,363.46H159.767z"/>
	<path style="fill:#FBB03B;" d="M257.789,363.46c0-82.603-66.964-150.005-149.567-150.005l38.026,150.005H257.789z"/>
	<path style="fill:#FBB03B;" d="M408.341,363.46c0-140.31-113.744-254.786-254.054-254.786c0,0,41.608,63.598,56.632,125.239
		c17.53,71.921,7.957,129.547,7.957,129.547H408.341z"/>
</g>
<path id="SVGCleanerId_0" style="fill:#FBB03B;" d="M324.98,363.46c0-82.603,66.964-150.005,149.567-150.005L436.522,363.46H324.98z
	"/>
<g>
	<path id="SVGCleanerId_0_1_" style="fill:#FBB03B;" d="M324.98,363.46c0-82.603,66.964-150.005,149.567-150.005L436.522,363.46
		H324.98z"/>
</g>
<polygon style="fill:#F15A24;" points="493.132,403.327 18.869,403.327 18.869,339.072 177.467,339.072 218.264,363.46 
	493.132,363.46 "/>
<path d="M509.852,283.243c-1.934-2.483-4.904-3.935-8.05-3.935c-12.382,0-24.433,2.74-35.425,7.886l18.057-71.232
	c0.773-3.05,0.096-6.286-1.837-8.77c-1.934-2.484-4.904-3.935-8.05-3.935c-32.498,0-64.373,10.083-90.974,28.578
	C337.939,152.212,252.254,98.475,154.286,98.475c-3.745,0-7.188,2.053-8.97,5.346c-1.782,3.293-1.615,7.3,0.434,10.434
	c0.397,0.609,39.037,60.145,54.243,118.081c-26.676-18.901-58.389-29.08-91.772-29.08c-3.148,0-6.121,1.454-8.053,3.94
	c-1.933,2.486-2.608,5.724-1.831,8.775l4.29,16.85c-26.279-18.704-58.292-29.565-92.427-29.565c-3.146,0-6.116,1.452-8.05,3.935
	c-1.933,2.485-2.61,5.72-1.837,8.77l28.623,112.911H18.869c-5.632,0-10.199,4.567-10.199,10.199v64.255
	c0,5.632,4.567,10.199,10.199,10.199h474.263c5.632,0,10.199-4.567,10.199-10.199V363.46c0-4.616-3.07-8.512-7.277-9.769
	l15.633-61.678C512.461,288.963,511.784,285.727,509.852,283.243z M488.328,301.153l-13.208,52.109h-25.492l9.337-36.836
	C467.331,308.743,477.45,303.519,488.328,301.153z M461.277,224.297l-32.692,128.964h-10.26
	c-1.396-36.785-10.297-71.673-25.222-103.162C413.127,235.609,436.746,226.673,461.277,224.297z M397.932,353.261H230.371
	c1.943-20.91,3.77-67.146-9.542-121.764c-10.774-44.203-34.374-88.659-47.936-111.919
	C295.349,128.892,392.838,229.325,397.932,353.261z M206.68,264.613c5.643,35.56,4.943,65.374,3.703,82.254l-27.685-16.549
	c-1.582-0.947-3.39-1.445-5.233-1.445h-11.261c-5.987-27.222-18.738-51.591-36.269-71.458l-8.437-33.138
	C153.708,227.307,183.5,241.353,206.68,264.613z M23.467,224.285c58.276,5.566,107.278,47.411,121.789,104.588H49.98L23.467,224.285
	z M482.933,373.659v19.468H29.069v-43.857h145.582l38.38,22.943c1.582,0.947,3.39,1.445,5.233,1.445H482.933z"/>
<path d="M224.338,161.61c4.245,0,8.209-2.672,9.655-6.915c1.814-5.332-1.036-11.126-6.368-12.942
	c-3.35-1.14-6.767-2.218-10.152-3.203c-5.404-1.568-11.068,1.538-12.641,6.948c-1.573,5.409,1.538,11.068,6.948,12.641
	c3.09,0.899,6.21,1.883,9.272,2.925C222.14,161.433,223.248,161.61,224.338,161.61z"/>
<path d="M250.309,173.506c31.85,16.414,59.481,40.751,79.909,70.383c1.979,2.87,5.165,4.411,8.406,4.411
	c1.996,0,4.013-0.584,5.78-1.803c4.638-3.197,5.805-9.548,2.609-14.186c-22.327-32.387-52.535-58.991-87.358-76.937
	c-5.007-2.581-11.158-0.614-13.738,4.394C243.334,164.776,245.302,170.927,250.309,173.506z"/>
<g>
</g>
<g>
</g>
<g>
</g>
<g>
</g>
<g>
</g>
<g>
</g>
<g>
</g>
<g>
</g>
<g>
</g>
<g>
</g>
<g>
</g>
<g>
</g>
<g>
</g>
<g>
</g>
<g>
</g>
</svg>
